<?xml version="1.0" encoding="UTF-8" standalone="no" ?>
<!DOCTYPE svg PUBLIC "-//W3C//DTD SVG 1.1//EN" "http://www.w3.org/Graphics/SVG/1.1/DTD/svg11.dtd">
<svg xmlns="http://www.w3.org/2000/svg" xmlns:xlink="http://www.w3.org/1999/xlink" version="1.1" width="1080" height="1080" viewBox="0 0 1080 1080" xml:space="preserve">
<desc>Created with Fabric.js 5.2.4</desc>
<defs>
</defs>
<g transform="matrix(1 0 0 1 540 540)" id="c529c072-f682-4424-9508-7a18b3d2e1a5"  >
<rect style="stroke: none; stroke-width: 1; stroke-dasharray: none; stroke-linecap: butt; stroke-dashoffset: 0; stroke-linejoin: miter; stroke-miterlimit: 4; fill: rgb(255,255,255); fill-rule: nonzero; opacity: 1; visibility: hidden;" vector-effect="non-scaling-stroke"  x="-540" y="-540" rx="0" ry="0" width="1080" height="1080" />
</g>
<g transform="matrix(1 0 0 1 540 540)" id="c2bd080a-8006-479c-a3ca-9f486e3ca816"  >
</g>
<g transform="matrix(1.32 0 0 1.32 540 540)"  >
<g style=""   >
		<g transform="matrix(1 0 0 1 96.05 14.51)" id="3"  >
<linearGradient id="SVGID_gradient-2898bd-56937253_3" gradientUnits="objectBoundingBox" gradientTransform="matrix(1 0 0 1 0 0)"  x1="0" y1="0" x2="0" y2="1">
<stop offset="0%" style="stop-color:rgb(31,169,215);stop-opacity: 1"/>
<stop offset="100%" style="stop-color:rgb(49,135,163);stop-opacity: 1"/>
</linearGradient>
<path style="stroke: none; stroke-width: 1; stroke-dasharray: none; stroke-linecap: round; stroke-dashoffset: 0; stroke-linejoin: round; stroke-miterlimit: 1.5; fill: url(#SVGID_gradient-2898bd-56937253_3); fill-rule: evenodd; opacity: 1;" vector-effect="non-scaling-stroke"  transform=" translate(-100, -148.56)" d="M 190 79.2821 L 70.0001 10 L 10 44.641 L 70.0007 79.2812 L 70.0007 148.563 L 70.001 217.846 L 10.001 252.487 L 70.0004 287.129 L 129.999 252.488 L 190 217.846 L 190 79.2821 Z" stroke-linecap="round" />
</g>
		<g transform="matrix(1 0 0 1 -83.95 14.51)" id="1"  >
<linearGradient id="SVGID_gradient-ce519c-514854702_4" gradientUnits="objectBoundingBox" gradientTransform="matrix(1 0 0 1 0 0)"  x1="0" y1="0" x2="0" y2="1">
<stop offset="0%" style="stop-color:rgb(221,87,168);stop-opacity: 1"/>
<stop offset="100%" style="stop-color:rgb(191,74,144);stop-opacity: 1"/>
</linearGradient>
<path style="stroke: none; stroke-width: 1; stroke-dasharray: none; stroke-linecap: round; stroke-dashoffset: 0; stroke-linejoin: round; stroke-miterlimit: 1.5; fill: url(#SVGID_gradient-ce519c-514854702_4); fill-rule: evenodd; opacity: 1;" vector-effect="non-scaling-stroke"  transform=" translate(-100, -148.56)" d="M 10 79.2821 L 10 217.846 L 70.0001 252.487 L 130 287.129 L 190 252.488 L 130 217.848 L 129.999 148.565 L 129.999 79.283 L 190 44.6419 L 130 10 L 10 79.2821 Z" stroke-linecap="round" />
</g>
		<g transform="matrix(1 0 0 1 6.05 14.51)" id="2"  >
<linearGradient id="SVGID_gradient-ae58d5-381354595_5" gradientUnits="objectBoundingBox" gradientTransform="matrix(1 0 0 1 0 0)"  x1="0" y1="0" x2="0" y2="1">
<stop offset="0%" style="stop-color:rgb(185,92,227);stop-opacity: 1"/>
<stop offset="100%" style="stop-color:rgb(163,84,199);stop-opacity: 1"/>
</linearGradient>
<path style="stroke: none; stroke-width: 1; stroke-dasharray: none; stroke-linecap: round; stroke-dashoffset: 0; stroke-linejoin: round; stroke-miterlimit: 1.5; fill: url(#SVGID_gradient-ae58d5-381354595_5); fill-rule: evenodd; opacity: 1;" vector-effect="non-scaling-stroke"  transform=" translate(-70, -113.92)" d="M 70.0001 10 L 10 44.641 L 10 113.923 L 10.0006 183.205 L 70.0007 217.845 L 130.001 183.204 L 130.001 113.922 L 130.001 44.6402 L 70.0001 10 Z" stroke-linecap="round" />
</g>
		<g transform="matrix(1 0 0 1 96.05 14.51)" id="3"  >
<path style="stroke: rgb(78,136,230); stroke-width: 2; stroke-dasharray: none; stroke-linecap: round; stroke-dashoffset: 0; stroke-linejoin: round; stroke-miterlimit: 4; fill: none; fill-rule: evenodd; opacity: 1;" vector-effect="non-scaling-stroke"  transform=" translate(-100, -148.56)" d="M 190.0002 79.2821 L 70.0001 10 L 10 44.641 L 70.0007 79.2812 L 70.001 217.8456 L 10.001 252.4866 L 70.0004 287.1285 L 190.0002 217.8463 L 190.0002 79.2821 Z" stroke-linecap="round" />
</g>
		<g transform="matrix(1 0 0 1 -83.95 14.51)" id="1"  >
<path style="stroke: rgb(78,136,230); stroke-width: 2; stroke-dasharray: none; stroke-linecap: round; stroke-dashoffset: 0; stroke-linejoin: round; stroke-miterlimit: 4; fill: none; fill-rule: evenodd; opacity: 1;" vector-effect="non-scaling-stroke"  transform=" translate(-100, -148.56)" d="M 10 79.2821 L 10 217.8463 L 129.9997 287.1288 L 189.9998 252.4877 L 129.9997 217.8475 L 129.9995 79.283 L 189.9995 44.6419 L 130.0001 10 L 10 79.2821 Z" stroke-linecap="round" />
</g>
		<g transform="matrix(1 0 0 1 6.05 14.51)" id="2"  >
<path style="stroke: rgb(78,136,230); stroke-width: 2; stroke-dasharray: none; stroke-linecap: round; stroke-dashoffset: 0; stroke-linejoin: round; stroke-miterlimit: 4; fill: none; fill-rule: evenodd; opacity: 1;" vector-effect="non-scaling-stroke"  transform=" translate(-70, -113.92)" d="M 70.0001 10 L 10 44.641 L 10.0006 183.2052 L 70.0007 217.8453 L 130.0007 183.2043 L 130.0007 44.6402 L 70.0001 10 Z" stroke-linecap="round" />
</g>
		<g transform="matrix(1 0 0 1 -101.95 14.95)" id="draw_1hfppabk0xzic-stroke"  >
<path style="stroke: rgb(244,244,244); stroke-width: 2; stroke-dasharray: none; stroke-linecap: round; stroke-dashoffset: 0; stroke-linejoin: round; stroke-miterlimit: 4; fill: none; fill-rule: evenodd; opacity: 1;" vector-effect="non-scaling-stroke"  transform=" translate(-34, -34)" d="M 43.380001 52.34 C 45.728004 53.1922 48.227676 53.546375 50.720001 53.380001 C 52.720001 53.380001 57 42.900002 57 40.799999 C 57 38.700001 54.900002 34.52 51.759998 34.52 C 48.619999 34.52 43.380001 37.66 43.380001 37.66 M 20.68 29.799999 C 14.219999 32.580002 10.92 36.959999 11 42 C 11.1 47.720001 16 53.040001 25.700001 53.060001 M 46.560001 36 C 44.071365 34.607094 41.141472 34.227425 38.379997 34.939999 C 33.34 35.779999 31.379999 40.940002 28.379999 42.939999 C 25.380001 44.939999 20.380001 45.939999 18.380001 41.940002 C 16.380001 37.940002 22.6 33.799999 22.6 33.799999 M 30 48 C 30 48 25 56.360001 19.4 55.360001 C 26.639999 60.139999 33.639999 53.360001 33.639999 53.360001 C 33.578529 51.015476 32.156631 48.921692 30 48 Z M 36.879997 42 C 37.156143 42 37.379997 42.223858 37.379997 42.5 M 36.379997 42.439999 C 36.379997 42.163857 36.603859 41.940002 36.879997 41.940002 M 36.879997 42.939999 C 36.603859 42.939999 36.379997 42.716141 36.379997 42.439999 M 37.379997 42.439999 C 37.379997 42.716141 37.156143 42.939999 36.879997 42.939999 M 18.42 25.119999 L 24.42 37.34 C 24.697124 38.181915 25.440819 38.784119 26.321959 38.880104 C 27.2031 38.976089 28.05901 38.548134 28.510908 37.785629 C 28.962805 37.023125 28.927259 36.066849 28.42 35.34 L 22.779999 23.74 M 23.6 22.639999 C 25.279999 20 23.08 15.02 19.299999 13.7 C 17.48819 13.058041 15.792756 12.12589 14.28 10.94 C 13.439516 12.776661 12.97052 14.761395 12.9 16.779999 C 12.9 19.939999 14 25.18 18.5 25.1 C 20.547024 25.426243 22.581047 24.445126 23.6 22.639999 Z M 13.16 19.619999 C 14.32 19.779999 19.619999 20.26 22.139999 15.62 M 34 30 L 34 14 C 34 13.447716 34.447716 13 35 13 L 54 13 C 54.552284 13 55 13.447716 55 14 L 55 30 M 38 28 L 41.48 22.779999 C 41.859978 22.335667 42.415352 22.079845 43 22.079845 C 43.584648 22.079845 44.140022 22.335667 44.52 22.779999 L 48 28 M 48.880001 18 C 49.156143 18 49.380001 18.223858 49.380001 18.5 M 48.380001 18.439999 C 48.410511 18.187517 48.625687 17.998163 48.880001 18 M 48.880001 18.939999 C 48.603859 18.939999 48.380001 18.716143 48.380001 18.439999 M 49.380001 18.439999 C 49.380001 18.716143 49.156143 18.939999 48.880001 18.939999" stroke-linecap="round" />
</g>
		<g transform="matrix(1 0 0 1 6.05 14.96)" id="cog_18lbn7nk0pkw2-stroke"  >
<path style="stroke: rgb(244,244,244); stroke-width: 2; stroke-dasharray: none; stroke-linecap: round; stroke-dashoffset: 0; stroke-linejoin: round; stroke-miterlimit: 4; fill: none; fill-rule: evenodd; opacity: 1;" vector-effect="non-scaling-stroke"  transform=" translate(-40, -40.02)" d="M 44.75 53.909752 L 44.75 59.34375 C 44.75 61.84375 42.75 64.09375 40 64.09375 M 40 64.09375 C 37.25 64.09375 35.25 62.09375 35.25 59.34375 L 35.25 53.909752 M 40 64.09375 L 40 67.84375 M 52.5 42.34375 C 52.5 49.24725 46.9035 54.84375 40 54.84375 C 33.096451 54.84375 27.5 49.24725 27.5 42.34375 C 27.5 35.44025 33.096451 29.843824 40 29.843824 C 46.9035 29.843824 52.5 35.44025 52.5 42.34375 Z M 55.449749 55.450001 C 56.615749 54.5755 57.78175 53.9925 59.239502 53.9925 L 62.737499 54.284 C 64.778 54.5755 66.527 53.118 67.401497 51.368752 C 68.276001 49.328251 67.693245 47.28775 66.235497 45.83025 L 63.612 43.498001 C 62.737499 42.623501 62.154499 41.4575 62.154499 40 C 62.154499 38.834 62.737499 37.376499 63.612 36.501999 L 66.235497 34.169876 C 67.693245 32.712326 68.276001 30.380226 67.401497 28.631174 C 66.527 26.882126 64.778 25.716099 62.737499 25.716099 L 59.239502 26.007626 C 57.78175 26.007626 56.324249 25.424599 55.449749 24.550076 C 54.575249 23.38405 53.992252 22.218 53.992252 20.760475 L 54.283749 17.262375 C 54.575249 15.221826 53.117752 13.47275 51.368752 12.598225 C 49.327999 11.72371 47.287498 12.306752 45.829998 13.7643 L 43.498001 16.38785 C 42.623501 17.262375 41.4575 17.8454 39.999748 17.8454 C 38.542248 17.8454 37.376499 17.262375 36.501751 16.38785 L 34.169823 13.7643 C 32.712276 12.306752 30.671749 11.72371 28.631199 12.598225 C 26.882151 13.47275 25.424599 15.221826 25.716099 17.262375 L 26.007626 20.760475 C 26.007626 22.218 25.424625 23.38405 24.5501 24.550076 C 23.675575 25.424599 22.217976 26.007626 20.760426 26.007626 L 17.2624 25.716099 C 15.221826 25.716099 13.472775 26.882126 12.598249 28.631174 C 11.72372 30.380226 12.306718 32.712326 13.76425 34.169876 L 16.387825 36.501999 C 17.26235 37.376499 17.84535 38.834 17.84535 40 C 17.84535 41.4575 17.26235 42.623501 16.387825 43.498001 L 13.76425 45.83025 C 12.306718 47.28775 11.72372 49.328251 12.598249 51.368752 C 13.472775 53.118 15.221826 54.5755 17.2624 54.284 L 20.760426 53.9925 C 22.217976 53.9925 23.38405 54.5755 24.5501 55.450001" stroke-linecap="round" />
</g>
		<g transform="matrix(1 0 0 1 114.05 14.95)" id="tech_1qeh2yrk0wlq9-stroke"  >
<path style="stroke: rgb(244,244,244); stroke-width: 2; stroke-dasharray: none; stroke-linecap: round; stroke-dashoffset: 0; stroke-linejoin: round; stroke-miterlimit: 4; fill: none; fill-rule: evenodd; opacity: 1;" vector-effect="non-scaling-stroke"  transform=" translate(-34, -34)" d="M 11.998 13.914 C 11.998 12.856 12.854 12 13.912 12 L 21.563999 12 C 22.619999 12 23.476 12.856 23.476 13.914 L 23.476 21.566 C 23.474899 22.621513 22.619513 23.476898 21.564001 23.478001 L 13.912 23.478001 C 12.855707 23.478001 11.999104 22.622292 11.998 21.566002 L 11.998 13.914 Z M 15.823999 17.74 C 15.824 18.797073 16.680927 19.653999 17.738001 19.653999 C 18.795074 19.653999 19.652 18.797073 19.652 17.740002 C 19.652 16.682928 18.795074 15.826 17.738001 15.826 C 16.680927 15.826 15.824 16.682928 15.824 17.740002 M 15.823999 34 C 15.824 35.057076 16.680927 35.914001 17.738001 35.914001 C 18.795074 35.914001 19.652 35.057076 19.652 34 C 19.652 32.942928 18.795074 32.086002 17.738001 32.086002 C 16.680927 32.086002 15.824 32.942928 15.824 34 M 15.823999 50.259998 C 15.824 51.317074 16.680927 52.174004 17.738001 52.174004 C 18.795074 52.174004 19.652 51.317074 19.652 50.260002 C 19.652 49.20293 18.795074 48.346001 17.738001 48.346001 C 16.680927 48.346001 15.824 49.20293 15.824 50.260002 M 32.085999 17.74 C 32.086002 18.797073 32.942928 19.653999 34 19.653999 C 35.057076 19.653999 35.914001 18.797073 35.914001 17.740002 C 35.914001 16.682928 35.057076 15.826 34 15.826 C 32.942928 15.826 32.086002 16.682928 32.086002 17.740002 M 48.348 17.74 C 48.348003 18.797073 49.204929 19.653999 50.262001 19.653999 C 51.319077 19.653999 52.176003 18.797073 52.176003 17.740002 C 52.176003 16.682928 51.319077 15.826 50.262001 15.826 C 49.204929 15.826 48.348003 16.682928 48.348003 17.740002 M 32.085999 34 C 32.086002 35.057076 32.942928 35.914001 34 35.914001 C 35.057076 35.914001 35.914001 35.057076 35.914001 34 C 35.914001 32.942928 35.057076 32.086002 34 32.086002 C 32.942928 32.086002 32.086002 32.942928 32.086002 34 M 48.348 34 C 48.348003 35.057076 49.204929 35.914001 50.262001 35.914001 C 51.319077 35.914001 52.176003 35.057076 52.176003 34 C 52.176003 32.942928 51.319077 32.086002 50.262001 32.086002 C 49.204929 32.086002 48.348003 32.942928 48.348003 34 M 32.085999 50.259998 C 32.086002 51.317074 32.942928 52.174004 34 52.174004 C 35.057076 52.174004 35.914001 51.317074 35.914001 50.260002 C 35.914001 49.20293 35.057076 48.346001 34 48.346001 C 32.942928 48.346001 32.086002 49.20293 32.086002 50.260002 M 48.348 50.259998 C 48.348003 51.317074 49.204929 52.174004 50.262001 52.174004 C 51.319077 52.174004 52.176003 51.317074 52.176003 50.260002 C 52.176003 49.20293 51.319077 48.346001 50.262001 48.346001 C 49.204929 48.346001 48.348003 49.20293 48.348003 50.260002 M 28.26 13.914 C 28.26 12.856 29.118 12 30.174 12 L 37.826 12 C 38.882 12 39.739998 12.856 39.739998 13.914 L 39.739998 21.566 C 39.738899 22.622292 38.882294 23.478001 37.826004 23.478001 L 30.174 23.478001 C 29.117708 23.478001 28.261105 22.622292 28.26 21.566002 L 28.26 13.914 Z M 44.523998 13.914 C 44.523998 12.856 45.380001 12 46.436001 12 L 54.088001 12 C 55.146 12 56.001999 12.856 56.001999 13.914 L 56.001999 21.566 C 56.0009 22.622292 55.144295 23.478001 54.088001 23.478001 L 46.436001 23.478001 C 45.380489 23.476898 44.525105 22.621513 44.524002 21.566002 L 44.523998 13.914 Z M 11.998 30.174 C 11.998 29.118 12.854 28.26 13.912 28.26 L 21.563999 28.26 C 22.619999 28.26 23.476 29.118 23.476 30.174 L 23.476 37.826 C 23.476002 38.882294 22.620293 39.738899 21.564001 39.740002 L 13.912 39.739998 C 12.854927 39.740002 11.998 38.883076 11.998 37.826004 L 11.998 30.174 Z M 11.998 46.433998 C 11.998 45.377998 12.854 44.521999 13.912 44.521999 L 21.563999 44.521999 C 22.619999 44.521999 23.476 45.377998 23.476 46.433998 L 23.476 54.085999 C 23.476002 55.142296 22.620293 55.998898 21.564001 56.000004 L 13.912 56 C 12.854927 56.000004 11.998 55.143074 11.998 54.086002 L 11.998 46.433998 Z M 28.26 30.174 C 28.26 29.118 29.118 28.26 30.174 28.26 L 37.826 28.26 C 38.882 28.26 39.739998 29.118 39.739998 30.174 L 39.739998 37.826 C 39.740532 38.333786 39.539047 38.82093 39.179989 39.179989 C 38.82093 39.539047 38.333786 39.740532 37.826 39.739998 L 30.174 39.739998 C 29.116928 39.740002 28.26 38.883076 28.26 37.826004 L 28.26 30.174 Z M 28.26 46.433998 C 28.26 45.377998 29.118 44.521999 30.174 44.521999 L 37.826 44.521999 C 38.882 44.521999 39.739998 45.377998 39.739998 46.433998 L 39.739998 54.085999 C 39.740002 55.143074 38.883076 56.000004 37.826004 56.000004 L 30.174 56 C 29.116928 56.000004 28.26 55.143074 28.26 54.086002 L 28.26 46.433998 Z M 44.523998 30.174 C 44.523998 29.118 45.380001 28.26 46.436001 28.26 L 54.088001 28.26 C 55.146 28.26 56.001999 29.118 56.001999 30.174 L 56.001999 37.826 C 56.002533 38.333786 55.801048 38.82093 55.44199 39.179989 C 55.082932 39.539047 54.595787 39.740532 54.088001 39.739998 L 46.436001 39.739998 C 45.928558 39.740002 45.441933 39.538284 45.083305 39.179283 C 44.724678 38.820282 44.523468 38.333443 44.524002 37.826 L 44.523998 30.174 Z M 44.523998 46.433998 C 44.523998 45.377998 45.380001 44.521999 46.436001 44.521999 L 54.088001 44.521999 C 55.146 44.521999 56.001999 45.377998 56.001999 46.433998 L 56.001999 54.085999 C 56.002003 55.143074 55.145077 56.000004 54.088001 56.000004 L 46.436001 56 C 45.379711 55.998898 44.524002 55.142296 44.524002 54.086002 L 44.523998 46.433998 Z M 23.478001 17.74 L 28.26 17.74 M 23.478001 34 L 28.26 34 M 23.478001 50.259998 L 28.26 50.259998 M 39.739998 17.74 L 44.521999 17.74 M 39.739998 34 L 44.521999 34 M 39.739998 50.259998 L 44.521999 50.259998 M 50.259998 23.478001 L 50.259998 28.26 M 34 23.478001 L 34 28.26 M 17.74 23.478001 L 17.74 28.26 M 50.259998 39.739998 L 50.259998 44.521999 M 34 39.739998 L 34 44.521999 M 17.74 39.739998 L 17.74 44.521999" stroke-linecap="round" />
</g>
</g>
</g>
</svg>